<svg width="37" height="12" viewBox="0 0 37 12" fill="none" xmlns="http://www.w3.org/2000/svg">
<g id="Amazon">
<path id="Smile" fill-rule="evenodd" clip-rule="evenodd" d="M23.1365 10.0558C23.3899 9.43041 23.9537 8.02897 23.6856 7.68938H23.6875C23.4206 7.34905 21.9223 7.52765 21.2484 7.60798L21.2469 7.60815C21.0419 7.63262 21.0104 7.45548 21.1947 7.32728C22.3913 6.49248 24.3519 6.73127 24.5796 7.01313C24.8073 7.29498 24.5175 9.24642 23.3968 10.1781C23.2243 10.321 23.0597 10.2447 23.1365 10.0558ZM15.083 11.0203C17.6893 11.0203 20.7243 10.2031 22.8149 8.67155V8.67448C23.1609 8.41612 22.8642 8.0364 22.5113 8.18516C20.2293 9.14084 17.7796 9.63972 15.3029 9.65314C11.8667 9.65314 8.54287 8.71755 5.85386 7.16441C5.61827 7.02838 5.44282 7.26815 5.63996 7.44333C8.22872 9.76232 11.5964 11.038 15.083 11.0203Z" fill="#FF9900"/>
<path id="Amazon_2" fill-rule="evenodd" clip-rule="evenodd" d="M32.1206 6.43517H33.2305H33.2315C33.3476 6.43733 33.444 6.34677 33.4483 6.23156V3.17717C33.4483 2.79353 33.469 2.44709 33.6248 2.10064C33.7317 1.8371 33.9836 1.65967 34.2694 1.64655C34.9794 1.64655 34.9726 2.41895 34.9672 3.02577C34.9667 3.07695 34.9663 3.12695 34.9663 3.17521V6.257C34.98 6.35588 35.063 6.43085 35.1634 6.43517H36.2832C36.3894 6.43735 36.4808 6.3612 36.4971 6.257V2.68588C36.4971 2.13685 36.4971 1.37252 36.2063 0.918424C35.8919 0.429094 35.4049 0.25 34.9062 0.25C34.1373 0.25 33.7007 0.619933 33.3892 1.39601H33.3675V0.527939C33.345 0.437191 33.2644 0.372394 33.1703 0.369396H32.1373C32.0282 0.36673 31.9352 0.447569 31.9234 0.555341V6.23156C31.9248 6.34039 32.0111 6.42945 32.1206 6.43517ZM31.0789 3.45796C31.0789 1.66702 30.1849 0.257751 28.5318 0.257751C26.9212 0.257751 26.0271 1.64353 26.0271 3.39826C26.0271 5.153 26.9103 6.56227 28.5318 6.56227C30.0932 6.56227 31.0789 5.18921 31.0789 3.45796ZM27.6703 3.21918C27.6703 2.52629 27.7226 1.41649 28.5437 1.41649C28.8966 1.41649 29.1459 1.57406 29.2711 1.96552C29.417 2.41864 29.4377 2.99213 29.4377 3.46972C29.4377 4.19784 29.4052 5.39181 28.5328 5.39181C27.67 5.39181 27.6702 3.9442 27.6703 3.24215L27.6703 3.21918ZM6.84045 6.44729H7.95332H7.9543C8.01016 6.44854 8.06424 6.4277 8.10457 6.38931C8.1449 6.35092 8.16815 6.29815 8.16919 6.24269V3.23528L8.16917 3.1882C8.16871 2.53429 8.1681 1.66942 8.93804 1.66942C9.64983 1.66942 9.63882 2.42931 9.62993 3.04295C9.62897 3.10914 9.62804 3.17363 9.62804 3.23528V6.24367C9.62993 6.35231 9.71592 6.4411 9.82518 6.44729H10.941C10.9967 6.44828 11.0505 6.42731 11.0906 6.38895C11.1307 6.35059 11.1539 6.29798 11.1549 6.24269V3.23528L11.1548 3.16377C11.1541 2.84513 11.1532 2.41514 11.2594 2.14799C11.3676 1.87491 11.6293 1.69209 11.9247 1.68312C12.2471 1.68312 12.4964 1.79078 12.5792 2.17245C12.6215 2.35615 12.616 2.782 12.6124 3.06438C12.6115 3.13103 12.6108 3.18968 12.6108 3.23528V6.24367C12.6122 6.3525 12.6985 6.44156 12.8079 6.44729H13.9208C13.9767 6.44854 14.0307 6.4277 14.0711 6.38931C14.1114 6.35092 14.1346 6.29815 14.1357 6.24269V2.66178C14.1357 2.57451 14.1372 2.48531 14.1387 2.39514L14.1387 2.39505C14.1478 1.86037 14.1575 1.29123 13.8548 0.882583C13.4877 0.419049 12.8974 0.188062 12.3105 0.278314C11.7237 0.368566 11.2314 0.766027 11.0228 1.31809C10.7103 0.600729 10.2638 0.267007 9.57777 0.267007C8.89171 0.267007 8.3821 0.600729 8.11202 1.31809H8.09132V0.577241C8.08545 0.471649 8.00053 0.387335 7.89418 0.38151H6.85622C6.7416 0.380386 6.64705 0.470346 6.64331 0.584092V6.26031C6.65341 6.36245 6.73722 6.44191 6.84045 6.44729ZM4.90219 6.48947C4.82889 6.55258 4.72355 6.56316 4.63901 6.51589C4.32362 6.25536 4.22853 6.11453 4.08251 5.89826C4.05739 5.86105 4.03077 5.82162 4.00126 5.77896C3.38913 6.39747 2.9564 6.58244 2.16488 6.58244C1.22747 6.58244 0.498047 6.00797 0.498047 4.85902C0.498047 3.96159 0.990901 3.35189 1.6809 3.05242C2.1904 2.83043 2.87021 2.76153 3.45794 2.70197C3.56722 2.69089 3.67332 2.68014 3.77454 2.66878V2.5259C3.77454 2.49868 3.77476 2.47094 3.77499 2.44284V2.44281V2.44277V2.44274V2.44271V2.44267C3.77694 2.19905 3.77911 1.9278 3.6395 1.7234C3.50347 1.51984 3.24522 1.43665 3.01456 1.43665C2.58972 1.43665 2.21121 1.65294 2.11855 2.10018C2.10681 2.20451 2.02595 2.288 1.92141 2.30374L0.850931 2.18728C0.797514 2.17969 0.749568 2.15069 0.718274 2.10704C0.68698 2.06339 0.675073 2.00892 0.685332 1.95632C0.932744 0.656663 2.11559 0.264221 3.17523 0.264221C3.71737 0.264221 4.42511 0.407105 4.85094 0.814227C5.35082 1.2789 5.34773 1.8872 5.34435 2.55197C5.34407 2.60685 5.34379 2.66211 5.34379 2.71772V4.43918C5.34379 4.9028 5.51704 5.13342 5.69954 5.37634C5.72122 5.40519 5.74303 5.43422 5.76469 5.46383C5.83566 5.5617 5.85143 5.68403 5.76469 5.75743C5.53699 5.94631 5.13285 6.29471 4.91106 6.49142L4.90219 6.48947ZM3.78184 3.79382L3.78188 3.84741C3.78227 4.25448 3.7826 4.59966 3.57386 4.96821C3.39643 5.27943 3.11551 5.47124 2.80205 5.47124C2.37524 5.47124 2.12585 5.14829 2.12585 4.66874C2.12585 3.72727 2.97652 3.55601 3.78184 3.55601V3.79382ZM20.295 5.37232L20.2951 5.37239C20.3168 5.40127 20.3386 5.43031 20.3603 5.45994C20.4352 5.56172 20.451 5.68112 20.3553 5.74865C20.1276 5.93753 19.7235 6.28691 19.5017 6.48264C19.428 6.54489 19.323 6.55504 19.2385 6.50809C18.9218 6.24644 18.828 6.10768 18.6798 5.88859L18.6798 5.88855L18.6793 5.88775L18.6791 5.88754C18.6546 5.85126 18.6286 5.81277 18.5998 5.77116C17.9887 6.38967 17.553 6.57463 16.7644 6.57463C15.827 6.57463 15.0976 6.00016 15.0976 4.8522C15.0976 3.95379 15.5875 3.34409 16.2854 3.04462C16.796 2.82179 17.4796 2.75321 18.069 2.69408C18.176 2.68335 18.2798 2.67293 18.379 2.66196V2.52201C18.379 2.49487 18.3792 2.46722 18.3794 2.4392C18.3814 2.19548 18.3835 1.92413 18.243 1.72049C18.1109 1.51693 17.8477 1.43277 17.618 1.43277C17.1932 1.43277 16.8166 1.64905 16.723 2.0963C16.7109 2.20048 16.6302 2.2838 16.5259 2.29986L15.4465 2.18438C15.3927 2.17705 15.3443 2.148 15.3128 2.1041C15.2813 2.0602 15.2694 2.00533 15.2799 1.95243C15.5283 0.651798 16.7112 0.260335 17.7708 0.260335C18.312 0.260335 19.0197 0.403219 19.4465 0.810341C19.9474 1.27261 19.9439 1.8762 19.9401 2.53757C19.9397 2.59589 19.9394 2.65466 19.9394 2.71383V4.43627C19.9394 4.89893 20.1126 5.12946 20.295 5.37232ZM17.4016 5.46642C17.714 5.46642 17.996 5.2746 18.1724 4.96437C18.3819 4.59381 18.3817 4.24699 18.3814 3.83484L18.3814 3.79096V3.55216C17.576 3.55216 16.7254 3.72245 16.7254 4.6649C16.7254 5.14346 16.9748 5.46642 17.4016 5.46642ZM21.304 0.56466V1.37303C21.3034 1.42848 21.3257 1.48175 21.3658 1.5204C21.4058 1.55905 21.4601 1.57972 21.5159 1.57757H23.4321L21.235 4.70928C21.1347 4.87726 21.0873 5.0712 21.0989 5.26613V6.0931C21.0989 6.21249 21.232 6.34853 21.3592 6.281C22.571 5.65716 24.012 5.65461 25.2261 6.27415C25.3651 6.34559 25.4962 6.2076 25.4962 6.08821V5.21916C25.4924 5.08627 25.4172 4.9656 25.299 4.90305C24.6593 4.54584 23.9151 4.44112 23.2113 4.45776L25.1078 1.77037C25.2843 1.52962 25.3828 1.37695 25.3828 1.26049V0.56466C25.3834 0.509385 25.3612 0.456279 25.3214 0.417656C25.2815 0.379034 25.2275 0.358249 25.1719 0.360121H21.5119C21.4562 0.357014 21.4018 0.377495 21.3622 0.416484C21.3225 0.455473 21.3014 0.509317 21.304 0.56466Z" fill="black"/>
</g>
</svg>
