<svg width="61" height="46" viewBox="0 0 61 46" fill="none" xmlns="http://www.w3.org/2000/svg">
<g id="Payment Method/ApplePay" filter="url(#filter0_d_92_7634)">
<rect id="BASE" x="9.32292" y="9.32292" width="42.3542" height="27.3542" rx="13.6771" fill="white" stroke="#D9D9D9" stroke-width="2.64583"/>
<path id="ApplePay" fill-rule="evenodd" clip-rule="evenodd" d="M18.7307 19.1662C19.3351 19.2158 19.9394 18.8688 20.3171 18.4289C20.6885 17.9767 20.934 17.3695 20.8711 16.75C20.336 16.7748 19.675 17.0969 19.2973 17.5492C18.951 17.9395 18.6552 18.5714 18.7307 19.1662ZM25.9225 27.1463V17.4877H29.6052C31.5064 17.4877 32.8346 18.7763 32.8346 20.6597C32.8346 22.5431 31.4812 23.8441 29.5549 23.8441H27.446V27.1463H25.9225ZM20.866 19.2841C20.3336 19.2539 19.8478 19.4417 19.4554 19.5933C19.2029 19.6909 18.989 19.7735 18.8263 19.7735C18.6438 19.7735 18.4211 19.6865 18.1711 19.5887C17.8435 19.4606 17.469 19.3142 17.0763 19.3212C16.1761 19.3336 15.3388 19.8355 14.8792 20.6347C13.935 22.2331 14.6337 24.5997 15.5465 25.9007C15.9935 26.5451 16.5286 27.2513 17.2337 27.2265C17.5438 27.215 17.767 27.1218 17.9979 27.0254C18.2637 26.9144 18.5399 26.7991 18.9711 26.7991C19.3874 26.7991 19.6515 26.9114 19.905 27.0192C20.1461 27.1217 20.3775 27.2202 20.7212 27.2142C21.4514 27.2018 21.911 26.5698 22.3579 25.9255C22.8403 25.234 23.0522 24.5591 23.0844 24.4567L23.0882 24.4448C23.0874 24.4441 23.0814 24.4414 23.0709 24.4366C22.9097 24.364 21.6773 23.8087 21.6655 22.3198C21.6536 21.0701 22.643 20.4369 22.7987 20.3372C22.8082 20.3311 22.8146 20.327 22.8175 20.3249C22.188 19.408 21.2059 19.3089 20.866 19.2841ZM35.6137 27.2199C36.5705 27.2199 37.4582 26.7429 37.861 25.987H37.8925V27.1456H39.3026V22.338C39.3026 20.944 38.1695 20.0457 36.4257 20.0457C34.8079 20.0457 33.6118 20.9564 33.5677 22.2078H34.9401C35.0534 21.6131 35.6137 21.2228 36.3817 21.2228C37.3134 21.2228 37.8359 21.6503 37.8359 22.4371V22.9699L35.9347 23.0814C34.1658 23.1867 33.2089 23.8992 33.2089 25.1383C33.2089 26.3897 34.1972 27.2199 35.6137 27.2199ZM36.0255 26.0736C35.2134 26.0736 34.6972 25.6895 34.6972 25.1009C34.6972 24.4937 35.1945 24.1406 36.1451 24.0849L37.8385 23.9795V24.5247C37.8385 25.4292 37.0579 26.0736 36.0255 26.0736ZM43.9814 27.5236C43.3708 29.2149 42.672 29.7725 41.1863 29.7725C41.073 29.7725 40.6953 29.7601 40.6072 29.7353V28.5768C40.7016 28.5892 40.9345 28.6016 41.0541 28.6016C41.7277 28.6016 42.1054 28.3228 42.3384 27.5979L42.4769 27.1704L39.8958 20.1387H41.4885L43.2826 25.8446H43.3141L45.1083 20.1387H46.6569L43.9814 27.5236ZM27.4418 18.7512H29.1982C30.5202 18.7512 31.2756 19.4451 31.2756 20.6655C31.2756 21.886 30.5202 22.5861 29.1919 22.5861H27.4418V18.7512Z" fill="black"/>
</g>
<defs>
<filter id="filter0_d_92_7634" x="0.440945" y="0.440945" width="60.1181" height="45.1181" filterUnits="userSpaceOnUse" color-interpolation-filters="sRGB">
<feFlood flood-opacity="0" result="BackgroundImageFix"/>
<feColorMatrix in="SourceAlpha" type="matrix" values="0 0 0 0 0 0 0 0 0 0 0 0 0 0 0 0 0 0 127 0" result="hardAlpha"/>
<feOffset/>
<feGaussianBlur stdDeviation="3.77953"/>
<feComposite in2="hardAlpha" operator="out"/>
<feColorMatrix type="matrix" values="0 0 0 0 0 0 0 0 0 0 0 0 0 0 0 0 0 0 0.07 0"/>
<feBlend mode="normal" in2="BackgroundImageFix" result="effect1_dropShadow_92_7634"/>
<feBlend mode="normal" in="SourceGraphic" in2="effect1_dropShadow_92_7634" result="shape"/>
</filter>
</defs>
</svg>
