<svg width="30" height="18" viewBox="0 0 30 18" fill="none" xmlns="http://www.w3.org/2000/svg">
<g id="Mastercard">
<path id="Left" fill-rule="evenodd" clip-rule="evenodd" d="M14.8204 15.4473C13.2886 16.732 11.3018 17.5075 9.13084 17.5075C4.28542 17.5075 0.357422 13.6442 0.357422 8.87873C0.357422 4.11321 4.28542 0.25 9.13084 0.25C11.3018 0.25 13.2886 1.0255 14.8204 2.31021C16.3523 1.0255 18.339 0.25 20.51 0.25C25.3554 0.25 29.2834 4.11321 29.2834 8.87873C29.2834 13.6442 25.3554 17.5075 20.51 17.5075C18.339 17.5075 16.3523 16.732 14.8204 15.4473Z" fill="#ED0006"/>
<path id="Right" fill-rule="evenodd" clip-rule="evenodd" d="M14.8203 15.4473C16.7075 13.8646 17.9042 11.5091 17.9042 8.87873C17.9042 6.24836 16.7075 3.89288 14.8203 2.3102C16.3522 1.0255 18.3389 0.25 20.5099 0.25C25.3553 0.25 29.2833 4.11321 29.2833 8.87873C29.2833 13.6442 25.3553 17.5075 20.5099 17.5075C18.3389 17.5075 16.3522 16.732 14.8203 15.4473Z" fill="#F9A000"/>
<path id="Middle" fill-rule="evenodd" clip-rule="evenodd" d="M14.8234 15.4452C16.7091 13.8626 17.9047 11.508 17.9047 8.87886C17.9047 6.24969 16.7091 3.89516 14.8234 2.3125C12.9378 3.89516 11.7422 6.24969 11.7422 8.87886C11.7422 11.508 12.9378 13.8626 14.8234 15.4452Z" fill="#FF5E00"/>
</g>
</svg>
