<svg width="27" height="23" viewBox="0 0 27 23" fill="none" xmlns="http://www.w3.org/2000/svg">
<g id="PayPal">
<path id="Vector" fill-rule="evenodd" clip-rule="evenodd" d="M3.7283 16.0522H1.72822C1.59136 16.0522 1.47495 16.149 1.45361 16.2803L0.644676 21.2666C0.628598 21.365 0.706973 21.4537 0.809628 21.4537H1.76448C1.90135 21.4537 2.01776 21.357 2.0391 21.2254L2.25728 19.8805C2.27832 19.7488 2.39501 19.6523 2.5316 19.6523H3.16475C4.48227 19.6523 5.24261 19.0324 5.44128 17.8041C5.53074 17.2667 5.44507 16.8445 5.18617 16.5487C4.90196 16.2241 4.39769 16.0522 3.7283 16.0522ZM3.95905 17.8734C3.8497 18.5712 3.30133 18.5712 2.77112 18.5712H2.4693L2.68104 17.268C2.69361 17.1894 2.7638 17.1313 2.84569 17.1313H2.98402C3.3452 17.1313 3.68594 17.1313 3.86202 17.3315C3.9669 17.4509 3.99911 17.6283 3.95905 17.8734ZM9.70702 17.8511H8.74923C8.66762 17.8511 8.59711 17.9091 8.58452 17.9879L8.54216 18.2483L8.47517 18.154C8.26783 17.8613 7.80551 17.7636 7.34401 17.7636C6.28553 17.7636 5.3816 18.5429 5.20552 19.6362C5.11403 20.1815 5.24409 20.7029 5.56228 21.0666C5.8542 21.4009 6.27186 21.5403 6.76868 21.5403C7.62145 21.5403 8.09446 21.0071 8.09446 21.0071L8.0517 21.2659C8.03559 21.3649 8.11395 21.4536 8.216 21.4536H9.07878C9.21601 21.4536 9.33173 21.3569 9.35338 21.2253L9.87105 18.0382C9.88743 17.9401 9.80934 17.8511 9.70702 17.8511ZM8.37191 19.6634C8.27947 20.1954 7.84517 20.5525 7.29136 20.5525C7.01324 20.5525 6.79088 20.4658 6.64823 20.3015C6.50667 20.1383 6.4528 19.9059 6.49787 19.6473C6.58422 19.1198 7.02583 18.7511 7.57124 18.7511C7.84314 18.7511 8.06428 18.8388 8.20991 19.0046C8.3558 19.1721 8.41373 19.4058 8.37191 19.6634ZM13.8455 17.8509H14.8081C14.9429 17.8509 15.0215 17.9979 14.9449 18.1054L11.7437 22.5978C11.6919 22.6706 11.6065 22.7138 11.5153 22.7138H10.554C10.4186 22.7138 10.3396 22.5657 10.418 22.4579L11.4147 21.09L10.3546 18.0653C10.3179 17.9601 10.3978 17.8509 10.5128 17.8509H11.4586C11.5815 17.8509 11.6899 17.9294 11.7253 18.0437L12.2879 19.8705L13.6155 17.9695C13.6674 17.8953 13.7538 17.8509 13.8455 17.8509Z" fill="#253B80"/>
<path id="Vector_2" fill-rule="evenodd" clip-rule="evenodd" d="M24.2823 21.2654L25.1031 16.1879C25.1157 16.1091 25.186 16.051 25.2676 16.0508H26.1917C26.2937 16.0508 26.3721 16.1397 26.356 16.2381L25.5465 21.2242C25.5254 21.3558 25.409 21.4525 25.2719 21.4525H24.4466C24.3446 21.4525 24.2662 21.3638 24.2823 21.2654ZM17.996 16.051H15.9955C15.859 16.051 15.7426 16.1478 15.7212 16.2791L14.9123 21.2654C14.8962 21.3638 14.9745 21.4525 15.0767 21.4525H16.1031C16.1985 21.4525 16.2801 21.3849 16.295 21.2928L16.5246 19.8793C16.5457 19.7476 16.6623 19.6511 16.7989 19.6511H17.4317C18.7495 19.6511 19.5097 19.0312 19.7085 17.8029C19.7983 17.2655 19.712 16.8433 19.4533 16.5475C19.1692 16.2229 18.6653 16.051 17.996 16.051ZM18.2267 17.8722C18.1176 18.57 17.5692 18.57 17.0387 18.57H16.7372L16.9492 17.2668C16.9618 17.1882 17.0314 17.1301 17.1135 17.1301H17.2519C17.6128 17.1301 17.9539 17.1301 18.1298 17.3303C18.2348 17.4497 18.2668 17.6271 18.2267 17.8722ZM23.9741 17.8499H23.017C22.9347 17.8499 22.8649 17.9079 22.8526 17.9867L22.8102 18.2471L22.743 18.1528C22.5356 17.8601 22.0736 17.7624 21.6121 17.7624C20.5536 17.7624 19.6499 18.5417 19.4739 19.635C19.3826 20.1803 19.5122 20.7017 19.8303 21.0654C20.1228 21.3997 20.5399 21.5391 21.0367 21.5391C21.8895 21.5391 22.3624 21.0059 22.3624 21.0059L22.3198 21.2647C22.3036 21.3637 22.382 21.4524 22.4847 21.4524H23.3471C23.4837 21.4524 23.6001 21.3557 23.6214 21.2241L24.1394 18.037C24.1552 17.9389 24.0769 17.8499 23.9741 17.8499ZM22.6392 19.6622C22.5473 20.1942 22.1124 20.5513 21.5585 20.5513C21.2809 20.5513 21.0581 20.4646 20.9153 20.3003C20.7738 20.1371 20.7206 19.9047 20.7651 19.6461C20.8519 19.1186 21.2929 18.7499 21.8384 18.7499C22.1104 18.7499 22.3314 18.8376 22.4772 19.0034C22.6236 19.1709 22.6815 19.4046 22.6392 19.6622Z" fill="#179BD7"/>
<path id="Vector_3" d="M11.1301 14.2678L11.376 12.7493L10.8283 12.737H8.21289L10.0305 1.53217C10.036 1.49834 10.0544 1.4668 10.0812 1.44441C10.108 1.42201 10.1424 1.40967 10.1781 1.40967H14.5882C16.0522 1.40967 17.0626 1.70587 17.5901 2.29049C17.8374 2.56475 17.9949 2.85134 18.0711 3.16674C18.1509 3.49769 18.1524 3.89307 18.0743 4.37531L18.0687 4.4105V4.71949L18.3161 4.85572C18.5243 4.96312 18.6897 5.08608 18.8167 5.22687C19.0283 5.46136 19.1652 5.75939 19.223 6.11272C19.2826 6.47611 19.2629 6.90852 19.1652 7.39808C19.0523 7.96122 18.8699 8.45168 18.6236 8.85301C18.3969 9.22281 18.1082 9.52945 17.7655 9.76721C17.4383 9.993 17.0494 10.1645 16.6098 10.2742C16.1838 10.382 15.6982 10.4364 15.1655 10.4364H14.8223C14.5769 10.4364 14.3385 10.5223 14.1514 10.6764C13.9638 10.8337 13.8396 11.0484 13.8016 11.2834L13.7757 11.4201L13.3413 14.0963L13.3215 14.1946C13.3164 14.2258 13.3074 14.2413 13.2943 14.2518C13.2825 14.2613 13.2656 14.2678 13.2491 14.2678H11.1301Z" fill="#253B80"/>
<path id="Vector_4" d="M18.5478 4.44678C18.5346 4.52859 18.5196 4.61224 18.5027 4.69817C17.921 7.60119 15.9314 8.60406 13.3901 8.60406H12.0963C11.7856 8.60406 11.5237 8.82346 11.4752 9.12149L10.8128 13.2061L10.6252 14.3639C10.5936 14.5596 10.7489 14.736 10.9519 14.736H13.2468C13.5186 14.736 13.7493 14.544 13.7921 14.2835L13.8147 14.1701L14.2468 11.5043L14.2746 11.3581C14.3168 11.0967 14.5481 10.9047 14.8199 10.9047H15.1631C17.3864 10.9047 19.127 10.0271 19.6358 7.48738C19.8482 6.42645 19.7382 5.54061 19.1759 4.91758C19.0058 4.72971 18.7946 4.57384 18.5478 4.44678Z" fill="#179BD7"/>
<path id="Vector_5" d="M17.9427 4.21076C17.8539 4.18562 17.7622 4.16276 17.6681 4.14219C17.5736 4.12209 17.4767 4.10426 17.3771 4.08872C17.0282 4.03387 16.646 4.00781 16.2365 4.00781H12.7799C12.6948 4.00781 12.614 4.02655 12.5416 4.06038C12.3822 4.13488 12.2638 4.28162 12.2351 4.46125L11.4996 8.98924L11.4785 9.12134C11.527 8.82331 11.7888 8.6039 12.0996 8.6039H13.3934C15.9347 8.6039 17.9244 7.60058 18.506 4.69802C18.5233 4.61209 18.5379 4.52845 18.551 4.44663C18.4039 4.37075 18.2445 4.30584 18.0729 4.25052C18.0307 4.23681 17.987 4.22356 17.9427 4.21076Z" fill="#222D65"/>
<path id="Vector_6" d="M12.2329 4.46107C12.2616 4.28143 12.3802 4.13471 12.5394 4.06065C12.6124 4.02682 12.6928 4.00809 12.7778 4.00809H16.2345C16.644 4.00809 17.0262 4.03414 17.375 4.08899C17.4747 4.10453 17.5716 4.12236 17.6661 4.14247C17.7601 4.16305 17.8518 4.1859 17.9407 4.21103C17.9848 4.22384 18.0285 4.23709 18.0713 4.25035C18.2429 4.30565 18.4023 4.37102 18.5494 4.44644C18.7225 3.37364 18.5481 2.6432 17.9515 1.98178C17.2938 1.25363 16.1066 0.941895 14.5875 0.941895H10.1774C9.86705 0.941895 9.60247 1.16129 9.55442 1.45978L7.7176 12.7798C7.68133 13.0037 7.85903 13.2058 8.09127 13.2058H10.814L11.4976 8.98906L12.2329 4.46107Z" fill="#253B80"/>
</g>
</svg>
